# xmcd
#
# Track frame offsets: 
#        150
#        22947
#        40461
#        60950
#        73321
#        91094
#        117402
#        137287
#        159378
#        172889
#        190526
#        212685
#
# Disc length: 3167 seconds
#
# Revision: 0
# Processed by: cddbd v1.5.2PL0 Copyright (c) Steve Scherf et al.
# Submitted via: ExactAudioCopyFreeDBPlugin 1.0
#
DISCID=930c5d0c
DTITLE=Marc Hervieux - Mes plaisirs...
DYEAR=2013
DGENRE=Easy Listening
TTITLE0=Ils s'aiment
TTITLE1=Et maintenant
TTITLE2=Le blues du businessman
TTITLE3=Non, je ne regrette rien
TTITLE4=Perce les nuages
TTITLE5=Ordinaire
TTITLE6=Quand les hommes vivront d'amour
TTITLE7=Le Vaisseau d'Or
TTITLE8=La quête
TTITLE9=L'hymne à l'amour
TTITLE10=La maison sous les arbres
TTITLE11=Je ne suis qu'une chanson
EXTD=
EXTT0=
EXTT1=
EXTT2=
EXTT3=
EXTT4=
EXTT5=
EXTT6=
EXTT7=
EXTT8=
EXTT9=
EXTT10=
EXTT11=
PLAYORDER=
